HIERARCHY
ROOT Hips
{
  OFFSET 0.000000 0.000000 0.000000
  CHANNELS 6 Xposition Yposition Zposition Zrotation Xrotation Yrotation
  JOINT LeftUpLeg
  {
    OFFSET 0.066924 -0.099578 -0.015922
    CHANNELS 3 Zrotation Xrotation Yrotation
    JOINT LeftLeg
    {
      OFFSET 0.060329 -0.345810 0.036209
      CHANNELS 3 Zrotation Xrotation Yrotation
      JOINT LeftFoot
      {
        OFFSET -0.043502 -0.386818 -0.091780
        CHANNELS 3 Zrotation Xrotation Yrotation
        JOINT LeftToeBase
        {
          OFFSET 0.055171 -0.062217 0.117569
          CHANNELS 3 Zrotation Xrotation Yrotation
          End Site
          {
            OFFSET 0 0 0.1
          }
        }
      }
    }
  }
  JOINT RightUpLeg
  {
    OFFSET -0.070956 -0.123771 -0.011793
    CHANNELS 3 Zrotation Xrotation Yrotation
    JOINT RightLeg
    {
      OFFSET -0.037083 -0.320632 0.063654
      CHANNELS 3 Zrotation Xrotation Yrotation
      JOINT RightFoot
      {
        OFFSET 0.010433 -0.393871 -0.120984
        CHANNELS 3 Zrotation Xrotation Yrotation
        JOINT RightToeBase
        {
          OFFSET -0.024435 -0.058861 0.114174
          CHANNELS 3 Zrotation Xrotation Yrotation
          End Site
          {
            OFFSET 0 0 0.1
          }
        }
      }
    }
  }
  JOINT Spine
  {
    OFFSET 0.001958 0.081267 -0.030772
    CHANNELS 3 Zrotation Xrotation Yrotation
    JOINT Spine1
    {
      OFFSET 0.015747 0.137375 0.042000
      CHANNELS 3 Zrotation Xrotation Yrotation
      JOINT Spine2
      {
        OFFSET 0.006988 0.076956 0.016500
        CHANNELS 3 Zrotation Xrotation Yrotation
        JOINT Neck
        {
          OFFSET 0.002771 0.177163 0.006947
          CHANNELS 3 Zrotation Xrotation Yrotation
          JOINT RightArm
          {
            OFFSET 0.018758 0.054247 0.068592
            CHANNELS 3 Zrotation Xrotation Yrotation
            End Site
            {
              OFFSET 0 0 0.1
            }
          }
        }
        JOINT RightShoulder
        {
          OFFSET 0.070429 0.094663 0.000981
          CHANNELS 3 Zrotation Xrotation Yrotation
          JOINT LeftArm
          {
            OFFSET 0.114066 -0.011652 -0.017796
            CHANNELS 3 Zrotation Xrotation Yrotation
            JOINT LeftForeArm
            {
              OFFSET 0.068748 -0.215185 0.009437
              CHANNELS 3 Zrotation Xrotation Yrotation
              JOINT LeftHand
              {
                OFFSET -0.048943 -0.143710 0.120974
                CHANNELS 3 Zrotation Xrotation Yrotation
                End Site
                {
                  OFFSET 0 0 0.1
                }
              }
            }
          }
        }
        JOINT LeftShoulder
        {
          OFFSET -0.074070 0.106741 0.010302
          CHANNELS 3 Zrotation Xrotation Yrotation
          JOINT RightForeArm
          {
            OFFSET -0.108267 -0.002359 -0.005597
            CHANNELS 3 Zrotation Xrotation Yrotation
            JOINT RightHand
            {
              OFFSET -0.106498 -0.207526 -0.038560
              CHANNELS 3 Zrotation Xrotation Yrotation
              JOINT LeftHandEnd
              {
                OFFSET 0.076914 -0.152398 0.174813
                CHANNELS 3 Zrotation Xrotation Yrotation
                End Site
                {
                  OFFSET 0 0 0.1
                }
              }
            }
          }
        }
      }
    }
  }
}
MOTION
Frames: 7
Frame Time: 0.05000000
0.168383 0.937500 0.827216 -0.000000 0.000000 -26.917489 -49.928005 -32.608058 37.364122 66.908420 -16.728854 -17.603787 -22.677032 12.370439 1.658377 0.483887 14.697066 45.470586 56.542976 26.715550 20.728104 -64.182788 -9.058204 -6.423892 -3.584940 29.512019 1.914214 3.167582 9.882535 9.311949 16.251733 -15.506499 29.144868 -22.196101 32.354770 8.113514 4.032807 -3.256672 0.194441 7.072470 -8.295438 0.462719 15.142732 -38.315215 39.180814 47.774455 27.463232 30.858658 32.738905 24.544682 -41.344603 -71.080278 -31.421498 -26.131544 -5.399158 -7.000485 -0.436829 -50.692011 -30.638990 33.165065 -28.547891 1.734543 -22.796582 63.655849 28.599024 -4.732639 35.382567 -17.534743 5.430967
0.169313 0.927396 0.827191 -0.000000 0.000000 -27.144506 -49.179221 -32.665471 38.123510 66.478198 -17.744237 -17.812105 -23.534691 13.055540 1.955848 1.648554 12.928791 45.347388 57.009434 26.886715 20.369690 -64.854627 -9.987113 -6.184157 -3.698430 30.117623 2.060427 3.613111 8.680240 8.965008 17.243778 -15.883607 29.568064 -22.736051 32.079898 8.305084 4.687897 -2.826905 0.270296 7.224810 -8.721866 0.497802 14.781826 -37.275295 40.741877 47.653413 27.644545 31.102855 32.752740 27.938991 -44.428239 -78.237083 -30.903816 -33.115828 2.323711 13.669874 0.295373 -51.180201 -30.613041 32.350676 -24.552052 3.548456 -19.800805 67.890545 32.765200 -3.915671 12.958955 -6.534458 2.131023
0.169299 0.946472 0.845731 -0.000000 0.000000 -27.371599 -50.329981 -33.082344 37.226413 67.379340 -16.595805 -17.367628 -22.968849 11.748780 1.634879 0.361706 15.893853 46.429579 56.042483 27.133698 21.411119 -63.378495 -8.846184 -6.642655 -4.387482 29.010538 2.040253 2.932452 11.198592 10.915525 14.809853 -14.109195 29.214460 -21.552648 31.099694 7.559606 3.673128 -3.638511 0.122282 7.204713 -7.528399 0.451285 15.818598 -39.350397 39.089970 47.877895 28.084440 31.419870 33.160632 20.214826 -38.258040 -62.496204 -32.252574 -18.148989 -18.297222 -41.719597 -2.098598 -49.590433 -31.294621 35.086505 -34.525160 -1.902466 -28.783346 59.935336 24.195765 -8.030157 67.815150 -32.321089 10.712184
0.173776 0.950779 0.867100 -0.000000 0.000000 -27.598760 -50.283030 -33.302276 37.417990 67.360988 -15.920437 -17.476401 -22.372786 11.075634 1.395565 -0.369173 16.843604 46.693134 55.535850 27.466158 22.197785 -63.269497 -7.826200 -7.078228 -4.114813 28.698722 1.958971 2.902605 10.962733 10.906113 15.314391 -13.895977 29.476044 -22.343154 31.103999 7.788146 1.962387 -2.870348 -0.056552 9.034745 -7.743053 0.641719 15.805766 -39.329293 39.126540 48.533930 28.665515 31.486342 33.484264 20.022660 -38.859778 -60.811676 -33.939357 -16.935672 -18.708104 -47.124744 -1.200901 -49.686743 -31.675035 35.394405 -34.387117 -2.402491 -29.639765 58.308702 23.196990 -8.173582 71.865430 -34.318411 11.158816
0.160502 0.935855 0.866799 -0.000000 0.000000 -27.825972 -49.390065 -33.526820 38.627737 66.943563 -17.598250 -17.968569 -23.555286 12.352080 1.834444 1.015842 14.557332 46.606523 56.304717 27.638611 21.547649 -63.934071 -9.332739 -6.672780 -4.572368 29.626675 2.191033 3.401805 9.920719 10.453412 16.294026 -14.697190 29.941370 -22.394147 31.297488 7.942181 4.092393 -2.997604 0.197762 7.394722 -7.993086 0.487011 15.726511 -38.512446 40.948951 47.556268 28.429782 31.966422 32.574589 24.209430 -41.703559 -70.421995 -32.460347 -25.740463 -8.424283 -13.743525 -0.894232 -50.078796 -31.560413 34.517526 -29.490272 0.155241 -25.166359 64.381940 29.202949 -6.522469 42.351991 -19.516271 6.796525
0.163182 0.937344 0.890680 -0.000000 0.000000 -28.053241 -49.248870 -33.850464 39.107929 66.810161 -16.789345 -18.340082 -22.478699 11.436984 1.469071 -0.042966 15.446949 47.083965 55.671791 28.017901 22.527255 -63.671955 -8.092285 -7.233262 -4.300828 29.193586 2.076354 3.352112 9.288015 10.422756 17.348347 -14.756034 30.316657 -23.893255 32.189981 8.613120 2.984857 -2.980386 0.058515 8.562357 -7.648169 0.590978 15.668292 -38.462119 40.646735 48.096226 28.786008 31.752463 33.048977 23.496689 -41.409852 -67.742069 -34.823997 -23.342328 -8.526839 -23.703909 -0.114218 -50.138375 -32.054268 35.054062 -28.946875 0.018143 -25.899704 61.135272 28.768331 -5.706660 48.000002 -22.040134 7.806528
0.148941 0.945485 0.883782 -0.000000 0.000000 -28.280537 -49.655468 -34.166683 38.908537 67.376111 -16.709895 -18.135991 -22.732095 11.405109 1.472794 -0.085229 15.758622 47.338585 55.893304 28.189717 22.374823 -63.571272 -8.494567 -7.057177 -4.589912 29.256395 2.106493 2.953277 10.436443 11.451300 16.206468 -13.968844 30.279109 -22.565265 31.231731 7.864028 3.077110 -3.154937 0.067578 7.991690 -7.751939 0.529417 15.799308 -38.868788 40.044702 47.895073 29.034735 32.206157 32.467981 21.844796 -39.944708 -66.314422 -34.106951 -21.431623 -11.822627 -31.913462 -0.633993 -49.771782 -32.183736 35.472853 -31.156722 -1.506205 -27.806142 60.723547 28.214997 -6.916482 57.168295 -25.089481 9.151845
